<?xml version="1.0" encoding="utf-8"?>
<!-- Generator: Adobe Illustrator 23.0.6, SVG Export Plug-In . SVG Version: 6.00 Build 0)  -->
<svg version="1.1" id="Calque_1" xmlns="http://www.w3.org/2000/svg" xmlns:xlink="http://www.w3.org/1999/xlink" x="0px" y="0px"
	 viewBox="0 0 100 100" style="enable-background:new 0 0 100 100;" xml:space="preserve">
<path d="M49,49.4c8,0,14.5,6.2,14.9,14.1h1c-0.2-3.9-1.8-7.6-4.6-10.4c-1.7-1.7-3.8-3-6.1-3.8h0l-1.6-0.5l1.4-0.9
	c2.4-1.7,3.8-4.4,3.8-7.3c0-4.9-4-8.9-8.9-8.9s-8.9,4-8.9,8.9c0,2.9,1.4,5.6,3.8,7.3l1.4,0.9l-1.6,0.5c-2.3,0.8-4.3,2.1-6.1,3.8
	c-2.8,2.8-4.4,6.5-4.6,10.4h1C34.5,55.6,41,49.4,49,49.4z M41.1,40.5c0-4.4,3.5-7.9,7.9-7.9s7.9,3.5,7.9,7.9c0,4.4-3.5,7.9-7.9,7.9
	S41.1,44.9,41.1,40.5z"/>
</svg>
