<?xml version="1.0" encoding="utf-8"?>
<!-- Generator: Adobe Illustrator 23.0.6, SVG Export Plug-In . SVG Version: 6.00 Build 0)  -->
<svg version="1.1" id="Calque_1" xmlns="http://www.w3.org/2000/svg" xmlns:xlink="http://www.w3.org/1999/xlink" x="0px" y="0px"
	 viewBox="0 0 100 100" style="enable-background:new 0 0 100 100;" xml:space="preserve">
<path d="M68.7,36v-4.1c0-0.2-0.2-0.4-0.4-0.4H31.7c-0.2,0-0.4,0.2-0.4,0.4V36c0,0.2,0.2,0.4,0.4,0.4h0.9v3.5c0,1.1,0.7,2.1,1.8,2.4
	l0.4,0.1l0,25.1h30.7V42.5l0.4-0.1c1.1-0.3,1.8-1.3,1.8-2.4v-3.5h0.7C68.5,36.4,68.7,36.2,68.7,36z M35.2,41.6
	c-0.5,0-0.9-0.2-1.2-0.5c-0.3-0.3-0.5-0.8-0.5-1.2v-3.5h3.4v3.5C36.9,40.8,36.1,41.6,35.2,41.6C35.2,41.6,35.2,41.6,35.2,41.6z
	 M49.7,66.7h-9V53.1h9V66.7z M59.5,66.7h-9V53.1h9V66.7z M64.6,66.7h-4.2v-14c0-0.2-0.2-0.4-0.4-0.4H40.3c-0.2,0-0.4,0.2-0.4,0.4v14
	h-4.2V47.1h29V66.7z M64.6,46.3h-29v-3.9l0.3-0.1c0.4-0.1,0.7-0.3,1-0.6l0.3-0.3l0.3,0.3c1,1,2.6,1,3.6,0l0.4-0.3l0.3,0.3
	c1,1,2.6,1,3.6,0l0.4-0.3l0.3,0.3c1,1,2.6,1,3.6,0l0.4-0.3l0.3,0.3c1,1,2.6,1,3.6,0l0.4-0.3l0.3,0.3c1,1,2.6,1,3.6,0l0.3-0.3
	l0.3,0.3c1,1,2.6,1,3.6,0l0.3-0.3l0.3,0.3c0.3,0.3,0.6,0.5,1,0.6l0.3,0.1V46.3z M37.8,39.9v-3.5h3.4v3.5c0,0.9-0.8,1.7-1.7,1.7
	C38.5,41.6,37.8,40.8,37.8,39.9z M42,39.9v-3.5h3.4v3.5c0,0.9-0.8,1.7-1.7,1.7C42.8,41.6,42,40.8,42,39.9z M46.3,39.9v-3.5h3.4v3.5
	c0,0.9-0.8,1.7-1.7,1.7S46.3,40.8,46.3,39.9z M50.6,39.9v-3.5H54v3.5c0,0.9-0.8,1.7-1.7,1.7C51.3,41.6,50.6,40.8,50.6,39.9z
	 M54.8,39.9v-3.5h3.4v3.5c0,0.9-0.8,1.7-1.7,1.7C55.6,41.6,54.8,40.8,54.8,39.9z M59.1,39.9v-3.5h3.4v3.5c0,0.9-0.8,1.7-1.7,1.7
	S59.1,40.8,59.1,39.9z M66.8,39.9c0,0.5-0.2,0.9-0.5,1.2c-0.3,0.3-0.7,0.5-1.2,0.5c0,0,0,0,0,0c-0.9,0-1.7-0.8-1.7-1.7v-3.5h3.4
	V39.9z M67.9,35.5H32.1v-3.3h35.7V35.5z"/>
</svg>
