<?xml version="1.0" encoding="utf-8"?>
<!-- Generator: Adobe Illustrator 23.0.6, SVG Export Plug-In . SVG Version: 6.00 Build 0)  -->
<svg version="1.1" id="Calque_1" xmlns="http://www.w3.org/2000/svg" xmlns:xlink="http://www.w3.org/1999/xlink" x="0px" y="0px"
	 viewBox="0 0 100 100" style="enable-background:new 0 0 100 100;" xml:space="preserve">
<path d="M64.5,38.7c0-0.3-0.2-0.5-0.5-0.5h-5.6v-2.6c0-0.7-0.1-1.4-0.4-2c-0.3-0.6-0.6-1.2-1.1-1.7c-0.5-0.5-1-0.9-1.7-1.1
	c-1.3-0.5-2.7-0.6-4,0L51,30.8l-0.2-0.1c-1.3-0.5-2.8-0.5-4,0c-0.6,0.3-1.2,0.6-1.7,1.1c-0.5,0.5-0.9,1-1.1,1.7
	c-0.3,0.6-0.4,1.3-0.4,2v2.6h-5.7c-0.3,0-0.5,0.2-0.5,0.5v29.6c0,0.3,0.2,0.5,0.5,0.5h26.3v-1.6h0.3L64.5,38.7z M53.1,31.3
	c1.2,0,2.3,0.4,3.1,1.3c0.8,0.8,1.3,1.9,1.3,3.1v2.6h-3.4v-2.6c0-0.7-0.1-1.4-0.4-2c-0.2-0.5-0.5-1-0.9-1.5L52,31.3L53.1,31.3z
	 M50.7,32l0.3-0.2l0.3,0.2c0.2,0.2,0.4,0.3,0.6,0.5c0.8,0.8,1.3,1.9,1.3,3.1v2.6h-4.3v-2.6c0-1.2,0.5-2.2,1.3-3.1
	C50.3,32.4,50.5,32.2,50.7,32z M44.5,35.6c0-1.2,0.5-2.2,1.3-3.1c0.8-0.8,1.9-1.3,3.1-1.3H50l-0.7,0.8c-0.4,0.4-0.7,0.9-0.9,1.5
	c-0.3,0.6-0.4,1.3-0.4,2v2.6h-3.4V35.6z M59.3,67.9H38.4V39.1h5.2v4.8c0,0.3,0.2,0.5,0.5,0.5c0.3,0,0.5-0.2,0.5-0.5v-4.8h8.7v4.8
	c0,0.3,0.2,0.5,0.5,0.5c0.3,0,0.5-0.2,0.5-0.5v-4.8h5.2V67.9z M63.6,67.9h-3.4V39.1h3.4V67.9z"/>
</svg>
