<?xml version="1.0" encoding="utf-8"?>
<!-- Generator: Adobe Illustrator 23.0.6, SVG Export Plug-In . SVG Version: 6.00 Build 0)  -->
<svg version="1.1" id="Calque_1" xmlns="http://www.w3.org/2000/svg" xmlns:xlink="http://www.w3.org/1999/xlink" x="0px" y="0px"
	 viewBox="0 0 100 100" style="enable-background:new 0 0 100 100;" xml:space="preserve">
<path d="M73.2,59.7L49.5,47.2v-2.6l0.5,0c3.5-0.9,5.6-3,5.6-5.5c0-3-2.5-5.5-5.5-5.5c-2.8,0-5.3,2.1-5.5,4.8l0,0.1
	c0,0.3,0.2,0.5,0.5,0.5c0.3,0,0.5-0.2,0.5-0.5c0.1-1.2,0.7-2,1.1-2.5c0.9-0.9,2.1-1.4,3.4-1.4c2.5,0,4.6,2,4.6,4.6
	c0,1-0.4,1.9-1.2,2.7c-0.9,0.9-2.2,1.5-3.7,1.9l0,0c-0.1,0-0.2,0.1-0.4,0.1L48.5,44v3.1l-0.1,0L24.8,59.7c-1.1,0.6-1.8,1.6-1.8,2.7
	c0,1.7,1.6,3.1,3.6,3.1h44.7c2,0,3.6-1.4,3.6-3.1C74.9,61.3,74.3,60.2,73.2,59.7z M71.4,64.5H26.6c-1.4,0-2.6-1-2.6-2.2
	c0-0.7,0.5-1.4,1.2-1.8l0,0l0.1-0.1L49,48l0.1,0l23.7,12.5c0.8,0.4,1.2,1.1,1.2,1.8C74,63.5,72.8,64.5,71.4,64.5z"/>
</svg>
