<?xml version="1.0" encoding="utf-8"?>
<!-- Generator: Adobe Illustrator 23.0.6, SVG Export Plug-In . SVG Version: 6.00 Build 0)  -->
<svg version="1.1" id="Calque_1" xmlns="http://www.w3.org/2000/svg" xmlns:xlink="http://www.w3.org/1999/xlink" x="0px" y="0px"
	 viewBox="0 0 100 100" style="enable-background:new 0 0 100 100;" xml:space="preserve">
<path d="M66.9,59.8l0-18.7c0-0.1,0-0.2-0.1-0.2c-0.1-0.1-0.2-0.2-0.3-0.3l-15.3-7.4c-0.1-0.1-0.3-0.1-0.4,0l-15.4,7.5
	c-0.2,0.1-0.3,0.3-0.3,0.4v18.7c0,0.2,0.1,0.4,0.3,0.4l15.3,7.4H51l0,0.1l0.1,0l0,0l0,0c0,0,0,0,0,0l0.1,0l15.4-7.5
	C66.8,60.2,66.9,60,66.9,59.8z M51,34.2L51,34.2l14.2,6.9L59.4,44l-0.1,0l-14.2-6.9L51,34.2z M50.5,66.5l-0.2-0.1l-14.2-6.9V42
	l0.2,0.1l14.2,6.9V66.5z M51,48.1L51,48.1l-14.2-6.9l7.3-3.5l0.1,0l14.2,6.9L51,48.1z M65.9,59.5l-14.4,7V48.9l7.2-3.5v5
	c0,0.3,0.2,0.5,0.5,0.5s0.5-0.2,0.5-0.5V45l6.2-3V59.5z"/>
</svg>
