<svg width="26" height="35" xmlns="http://www.w3.org/2000/svg"><g fill="none" fill-rule="evenodd"><path d="M13 35c3.995-8.976 13-13.82 13-22 0-7.18-5.82-13-13-13S0 5.82 0 13c0 8.18 8.997 13.003 13 22z" fill="#FFF"/><path d="M17.795 25.978c.377-.454 1.662-1.985 1.69-2.017a79.803 79.803 0 0 0 1.587-1.948C23.78 18.563 25 15.968 25 13c0-6.627-5.373-12-12-12S1 6.373 1 13c0 2.963 1.216 5.55 3.91 8.987.453.577.939 1.171 1.599 1.961.009.01 1.32 1.572 1.702 2.032 2.151 2.595 3.636 4.631 4.79 6.758 1.152-2.124 2.637-4.159 4.794-6.76zM13 35C8.997 26.003 0 21.18 0 13 0 5.82 5.82 0 13 0s13 5.82 13 13c0 8.18-9.005 13.024-13 22z" fill="#6A6A69" fill-rule="nonzero"/><circle fill="#000" cx="13" cy="13" r="6"/></g></svg>